<svg xmlns="http://www.w3.org/2000/svg" version="1.1" xmlns:xlink="http://www.w3.org/1999/xlink" xmlns:svgjs="http://svgjs.dev/svgjs" width="1500" height="1500" viewBox="0 0 1500 1500"><rect width="1500" height="1500" fill="#ffffff"></rect><g transform="matrix(0.6666666666666666,0,0,0.6666666666666666,249.39597074559106,340.0737019361272)"><svg viewBox="0 0 396 325" data-background-color="#ffffff" preserveAspectRatio="xMidYMid meet" height="1231" width="1500" xmlns="http://www.w3.org/2000/svg" xmlns:xlink="http://www.w3.org/1999/xlink"><g id="tight-bounds" transform="matrix(1,0,0,1,0.23989950142700422,-0.16119390240612574)"><svg viewBox="0 0 395.5199999999999 325.32238780481225" height="325.32238780481225" width="395.5199999999999"><g><svg viewBox="0 0 395.52000000000004 325.3223878048123" height="325.32238780481225" width="395.5199999999999"><g transform="matrix(1,0,0,1,0,206.00731463761892)"><svg viewBox="0 0 395.52000000000004 119.31507316719339" height="119.31507316719339" width="395.52000000000004"><g id="textblocktransform"><svg viewBox="0 0 395.52000000000004 119.31507316719339" height="119.31507316719339" width="395.52000000000004" id="textblock"><g><svg viewBox="0 0 395.52000000000004 119.31507316719339" height="119.31507316719339" width="395.52000000000004"><g transform="matrix(1,0,0,1,0,0)"><svg width="395.52000000000004" viewBox="-2.333735557468551 -27.713690035170664 145.60534070923987 43.92425329442587" height="119.31507316719339" data-palette-color="#252422"><path d="M11.922 14.786v0l-5.408 1.412c-0.155 0.04-0.252-0.017-0.293-0.172v0l-8.544-33.115c-0.034-0.129 0.011-0.21 0.133-0.242v0l9.27-2.42c2.948-0.77 5.515-0.479 7.7 0.873 2.184 1.345 3.679 3.563 4.486 6.652v0c0.59 2.258 0.655 4.342 0.196 6.253v0c-0.475 1.902-1.313 3.495-2.513 4.781-1.209 1.28-2.659 2.141-4.349 2.582v0l-3.667 0.957 3.171 12.143c0.04 0.155-0.02 0.253-0.182 0.296zM8.573-14.033v0l-3.655 1.006 2.494 9.55 3.667-0.958c1.019-0.266 1.775-0.987 2.267-2.163 0.499-1.178 0.543-2.55 0.134-4.117v0c-0.328-1.258-0.933-2.202-1.815-2.834-0.888-0.629-1.919-0.791-3.092-0.484zM32.462 10.261v0l-5.569 0.893c-0.125 0.02-0.2-0.049-0.226-0.207v0l-5.32-33.783c-0.021-0.132 0.031-0.208 0.156-0.228v0l9.932-1.594c1.777-0.285 3.479-0.113 5.107 0.517v0c1.626 0.624 3 1.591 4.122 2.904 1.122 1.312 1.831 2.89 2.127 4.733v0c0.192 1.198 0.182 2.314-0.03 3.347v0c-0.211 1.04-0.506 1.935-0.886 2.684-0.379 0.75-0.744 1.315-1.095 1.695v0c2.093 1.683 3.353 3.854 3.78 6.513v0l1.667 10.073c0.025 0.158-0.041 0.25-0.199 0.275v0l-5.569 0.894c-0.132 0.021-0.205-0.018-0.221-0.116v0l-1.632-10.17c-0.19-1.185-0.769-2.142-1.737-2.871-0.975-0.735-2.069-1.005-3.28-0.811v0l-3.238 0.52 2.27 14.463c0.025 0.158-0.028 0.248-0.159 0.269zM32.38-18.773v0l-4.216 0.676 1.241 7.731 4.216-0.676c1.007-0.162 1.848-0.685 2.523-1.57 0.669-0.877 0.917-1.859 0.742-2.945v0c-0.167-1.04-0.697-1.88-1.589-2.52-0.885-0.634-1.857-0.867-2.917-0.696zM65.084 6.848v0l-16.055 1.07c-0.126 0.008-0.195-0.067-0.205-0.227v0l-2.226-34.127c-0.009-0.133 0.05-0.204 0.177-0.213v0l15.964-1.064c0.126-0.008 0.195 0.071 0.206 0.237v0l0.37 5.547c0.009 0.133-0.05 0.204-0.176 0.213v0l-10.187 0.679 0.517 7.763 10.188-0.68c0.126-0.008 0.194 0.051 0.202 0.177v0l0.425 5.624c0.008 0.126-0.054 0.194-0.187 0.203v0l-10.227 0.682 0.579 8.681 10.227-0.682c0.133-0.009 0.205 0.07 0.216 0.236v0l0.379 5.678c0.008 0.126-0.054 0.194-0.187 0.203zM73.899 7.113v0l-5.588-0.155c-0.16-0.004-0.238-0.087-0.233-0.247v0l1.052-34.184c0.004-0.133 0.069-0.198 0.196-0.194v0l9.576 0.266c3.045 0.085 5.429 1.082 7.149 2.991 1.721 1.902 2.537 4.449 2.449 7.641v0c-0.065 2.332-0.585 4.352-1.56 6.059v0c-0.988 1.693-2.237 2.989-3.749 3.887-1.519 0.891-3.151 1.313-4.897 1.264v0l-3.789-0.106-0.349 12.545c-0.004 0.16-0.09 0.238-0.257 0.233zM78.737-21.493v0l-3.79-0.055-0.274 9.866 3.788 0.105c1.053 0.029 1.98-0.452 2.781-1.443 0.808-0.991 1.234-2.297 1.28-3.916v0c0.036-1.3-0.281-2.375-0.951-3.228-0.677-0.853-1.621-1.296-2.834-1.329zM95.472 8.339v0l-5.615-0.531c-0.159-0.015-0.231-0.102-0.216-0.262v0l3.272-34.043c0.013-0.133 0.082-0.193 0.208-0.181v0l5.566 0.527c0.133 0.013 0.193 0.085 0.18 0.218v0l-3.173 34.052c-0.015 0.159-0.089 0.233-0.222 0.22zM104.624 9.778v0l-5.519-0.891c-0.158-0.025-0.224-0.117-0.198-0.275v0l5.549-33.747c0.021-0.132 0.094-0.187 0.219-0.167v0l15.746 2.542c0.158 0.025 0.226 0.104 0.206 0.236v0l-0.895 5.538c-0.021 0.132-0.098 0.187-0.229 0.166v0l-10.069-1.626-1.232 7.631 10.069 1.626c0.132 0.021 0.185 0.111 0.159 0.269v0l-0.849 5.576c-0.02 0.125-0.113 0.174-0.277 0.147v0l-10.07-1.625-2.325 14.403c-0.025 0.158-0.121 0.224-0.285 0.197zM127.935 14.832v0l-5.527-1.434c-0.11-0.028-0.149-0.104-0.117-0.226v0l3.592-13.687-1.399-21.128c0.008-0.136 0.073-0.188 0.195-0.156v0l5.362 1.391c0.155 0.04 0.232 0.129 0.231 0.267v0l0.19 13.882 6.992-12.019c0.066-0.121 0.16-0.165 0.283-0.134v0l5.411 1.404c0.123 0.032 0.154 0.109 0.095 0.231v0l-11.521 17.57-3.555 13.903c-0.032 0.123-0.109 0.168-0.232 0.136z" opacity="1" transform="matrix(1,0,0,1,0,0)" fill="#000000" class="wordmark-text-0" data-fill-palette-color="primary" id="text-0"></path></svg></g></svg></g></svg></g></svg></g><g transform="matrix(1,0,0,1,135.884844432477,0)"><svg viewBox="0 0 123.75031113504608 171.8160916622218" height="171.8160916622218" width="123.75031113504608"><g><svg xmlns="http://www.w3.org/2000/svg" xmlns:xlink="http://www.w3.org/1999/xlink" version="1.1" x="0" y="0" viewBox="11.799999999999997 9.3 81.10000000000001 112.60000000000001" enable-background="new 0 0 108.3 129.2" xml:space="preserve" height="171.8160916622218" width="123.75031113504608" class="icon-icon-0" data-fill-palette-color="accent" id="icon-0"><g fill="#eb5e28" data-fill-palette-color="accent"><g fill="#eb5e28" data-fill-palette-color="accent"><g fill="#eb5e28" data-fill-palette-color="accent"><g fill="#eb5e28" data-fill-palette-color="accent"><path fill="#000000" d="M71 121.4c-4 0-7.2-1.5-8.9-2.9l-0.3-0.3L50.2 106l3.8-3.6 11.4 12.1c0.9 0.6 6.3 4 12.9-1 2-1.5 3.1-3.2 3.3-5 0.3-3.2-2.1-6.1-2.2-6.1l-13.6-14 3.8-3.7 13.6 14.1c0.2 0.3 4.1 4.7 3.5 10.2-0.3 3.4-2.1 6.3-5.4 8.7C77.8 120.5 74.2 121.4 71 121.4z" data-fill-palette-color="accent"></path></g></g></g><g fill="#eb5e28" data-fill-palette-color="accent"><g fill="#eb5e28" data-fill-palette-color="accent"><g fill="#eb5e28" data-fill-palette-color="accent"><path fill="#000000" d="M72 109.4c-0.5 0-0.9-0.2-1.3-0.5l-12.4-13c-0.7-0.7-0.6-1.8 0.1-2.5 0.7-0.7 1.8-0.6 2.5 0.1l12.4 13c0.7 0.7 0.6 1.8-0.1 2.5C72.8 109.2 72.4 109.4 72 109.4z" data-fill-palette-color="accent"></path></g></g></g><g fill="#eb5e28" data-fill-palette-color="accent"><g fill="#eb5e28" data-fill-palette-color="accent"><g fill="#eb5e28" data-fill-palette-color="accent"><path fill="#000000" d="M30.1 109.7c-0.4 0-0.9-0.2-1.2-0.5-0.7-0.7-0.7-1.8 0-2.5L67.8 67c1.8-1.6 6.5-6 7.7-7.8 1.7-2.5 1.8-6 1.8-9.4C77.2 36.1 66.1 25 52.4 25S27.6 36.1 27.6 49.8c0 5.3 1 9.2 3 12 3 4.1 14.2 14.9 14.3 15 0.7 0.7 0.7 1.8 0 2.5-0.7 0.7-1.8 0.7-2.5 0C42 78.8 31 68.2 27.8 63.9c-2.5-3.4-3.7-8-3.7-14 0-15.6 12.7-28.3 28.3-28.3s28.3 12.7 28.3 28.3c0 3.9-0.2 8-2.4 11.3-1.6 2.5-7.5 7.8-8.2 8.4l-38.8 39.6C31 109.5 30.5 109.7 30.1 109.7z" data-fill-palette-color="accent"></path></g></g></g><g fill="#eb5e28" data-fill-palette-color="accent"><g fill="#eb5e28" data-fill-palette-color="accent"><g fill="#eb5e28" data-fill-palette-color="accent"><path fill="#000000" d="M30.6 121.9c-3 0-6.2-0.9-9.5-3.4-3.2-2.5-5.1-5.4-5.5-8.8-0.7-5.5 2.8-10 2.9-10.2l0.2-0.3 13.1-12.7-5-5.3c-9.5-7.7-15-19.2-15-31.5C11.9 27.5 30 9.3 52.4 9.3s40.5 18.2 40.5 40.5c0 13.6-5.3 25-14.9 32.2l-36.6 35.7C39.3 119.7 35.3 121.9 30.6 121.9zM22.6 102.9c-0.4 0.6-2.1 3.3-1.7 6.2 0.3 1.9 1.4 3.7 3.5 5.3 7 5.3 13.2-0.2 13.4-0.4l37-36c8.4-6.2 12.9-15.9 12.9-28.1 0-19.4-15.8-35.3-35.3-35.3S17.1 30.4 17.1 49.8c0 10.7 4.8 20.8 13.2 27.5l0.3 0.2 5.1 5.4 12.9-12.5-10.6-11c-1.9-2.9-3-6.2-3-9.7 0-9.5 7.8-17.3 17.3-17.3s17.3 7.8 17.3 17.3c0 3.5-1 6.8-3 9.7l-0.3 0.4-10.6 11L22.6 102.9zM42.3 56.4l10.1 10.4 10.1-10.4c1.3-1.9 1.9-4.2 1.9-6.5 0-6.6-5.4-12-12-12s-12 5.4-12 12C40.4 52.2 41 54.4 42.3 56.4z" data-fill-palette-color="accent"></path></g></g></g></g></svg></g></svg></g><g></g></svg></g><defs></defs></svg><rect width="395.5199999999999" height="325.32238780481225" fill="none" stroke="none" visibility="hidden"></rect></g></svg></g></svg>